<svg viewBox="0 0 240 220" xmlns="http://www.w3.org/2000/svg" style="overflow:visible"><defs><mask id="cv-ring-mask"><rect x="0" y="0" width="240" height="220" fill="black"/><circle cx="110" cy="100" r="92" fill="white"/><circle cx="110" cy="100" r="42" fill="black"/></mask><linearGradient id="cv-shim" x1="0" y1="0" x2="1" y2="0"><stop offset="0%" stop-color="white" stop-opacity="0"/><stop offset="45%" stop-color="white" stop-opacity="0"/><stop offset="50%" stop-color="white" stop-opacity="0.55"/><stop offset="55%" stop-color="white" stop-opacity="0"/><stop offset="100%" stop-color="white" stop-opacity="0"/></linearGradient><filter id="cv-refract" x="-20%" y="-20%" width="140%" height="140%"><feTurbulence type="fractalNoise" baseFrequency="0.02" numOctaves="2" seed="3" result="turb"/><feDisplacementMap in="SourceGraphic" in2="turb" scale="4" xChannelSelector="R" yChannelSelector="G"/></filter><filter id="cv-grain" x="-5%" y="-5%" width="110%" height="110%"><feTurbulence type="fractalNoise" baseFrequency="1.8" numOctaves="1" seed="7" result="n"/><feColorMatrix in="n" type="matrix" values="0 0 0 0 1  0 0 0 0 1  0 0 0 0 1  0 0 0 0.25 0"/></filter><radialGradient id="cv-tint" cx="68%" cy="22%" r="95%"><stop offset="0%" stop-color="#7FDCFF" stop-opacity="0.42"/><stop offset="50%" stop-color="#2AA8F0" stop-opacity="0.55"/><stop offset="100%" stop-color="#1166C4" stop-opacity="0.68"/></radialGradient><radialGradient id="cv-spec" cx="72%" cy="22%" r="18%"><stop offset="0%" stop-color="white" stop-opacity="0.65"/><stop offset="60%" stop-color="white" stop-opacity="0.1"/><stop offset="100%" stop-color="white" stop-opacity="0"/></radialGradient><clipPath id="cv-disc-clip" clipPathUnits="userSpaceOnUse"><rect x="104" y="106" width="104" height="104" rx="26" ry="26"/></clipPath><mask id="cv-bracket-mask" maskUnits="userSpaceOnUse" x="102" y="104" width="108" height="108"><rect x="102" y="104" width="108" height="108" fill="black"/><g transform="translate(156 158)"><rect x="-52" y="-52" width="104" height="104" rx="26" ry="26" fill="white"/><rect x="-14" y="-53" width="28" height="22" fill="black"/><rect x="-14" y="31" width="28" height="22" fill="black"/><rect x="-53" y="-14" width="22" height="28" fill="black"/><rect x="31" y="-14" width="22" height="28" fill="black"/><rect x="-32" y="-32" width="64" height="64" fill="black"/></g></mask></defs><g transform="rotate(0 110 100)"><g mask="url(#cv-ring-mask)"><rect x="18" y="8" width="15.833333333333334" height="184" fill="#E3EEDD"/><rect x="33.78333333333334" y="8" width="15.833333333333334" height="184" fill="#C9DEBF"/><rect x="49.44608953007267" y="8" width="15.833333333333334" height="184" fill="#C9DEBF"/><rect x="64.9" y="8" width="15.833333333333334" height="184" fill="#A9CA99"/><rect x="80.11275619673934" y="8" width="15.833333333333334" height="184" fill="#7FB178"/><rect x="95.11666666666667" y="8" width="15.833333333333334" height="184" fill="#7FB178"/><rect x="110" y="8" width="15.833333333333334" height="184" fill="#4F8F5A"/><rect x="124.88333333333334" y="8" width="15.833333333333334" height="184" fill="#4F8F5A"/><rect x="139.8872438032607" y="8" width="15.833333333333334" height="184" fill="#2F6B3F"/><rect x="155.1" y="8" width="15.833333333333334" height="184" fill="#1E4B2D"/><rect x="170.55391046992736" y="8" width="15.833333333333334" height="184" fill="#1E4B2D"/><rect x="186.2166666666667" y="8" width="15.833333333333334" height="184" fill="#11331F"/></g></g><g mask="url(#cv-bracket-mask)"><g clip-path="url(#cv-disc-clip)"><g filter="url(#cv-refract)" style="transform-origin: 156px 158px;"><g transform="rotate(0 110 100)"><g mask="url(#cv-ring-mask)"><rect x="18" y="8" width="15.833333333333334" height="184" fill="#E3EEDD"/><rect x="33.78333333333334" y="8" width="15.833333333333334" height="184" fill="#C9DEBF"/><rect x="49.44608953007267" y="8" width="15.833333333333334" height="184" fill="#C9DEBF"/><rect x="64.9" y="8" width="15.833333333333334" height="184" fill="#A9CA99"/><rect x="80.11275619673934" y="8" width="15.833333333333334" height="184" fill="#7FB178"/><rect x="95.11666666666667" y="8" width="15.833333333333334" height="184" fill="#7FB178"/><rect x="110" y="8" width="15.833333333333334" height="184" fill="#4F8F5A"/><rect x="124.88333333333334" y="8" width="15.833333333333334" height="184" fill="#4F8F5A"/><rect x="139.8872438032607" y="8" width="15.833333333333334" height="184" fill="#2F6B3F"/><rect x="155.1" y="8" width="15.833333333333334" height="184" fill="#1E4B2D"/><rect x="170.55391046992736" y="8" width="15.833333333333334" height="184" fill="#1E4B2D"/><rect x="186.2166666666667" y="8" width="15.833333333333334" height="184" fill="#11331F"/></g></g></g></g></g><g mask="url(#cv-bracket-mask)"><rect x="104" y="106" width="104" height="104" rx="26" ry="26" fill="url(#cv-tint)"/><rect x="104" y="106" width="104" height="104" rx="26" ry="26" fill="white" opacity="0.03" filter="url(#cv-grain)"/><rect x="104" y="106" width="104" height="104" rx="26" ry="26" fill="url(#cv-spec)" opacity="0.5"/><rect x="104.6" y="106.6" width="102.8" height="102.8" rx="25.5" ry="25.5" fill="none" stroke="white" stroke-width="0.8" opacity="0.35"/></g><g mask="url(#cv-bracket-mask)"><rect x="104" y="106" width="104" height="104" rx="26" ry="26" fill="none" stroke="#0B2E5C" stroke-width="5.5" stroke-linejoin="round"/><rect x="124" y="126" width="64" height="64" rx="6" ry="6" fill="none" stroke="#0B2E5C" stroke-width="5.5" stroke-linejoin="round"/><line x1="142" y1="106" x2="142" y2="126" stroke="#0B2E5C" stroke-width="5.5" stroke-linecap="round"/><line x1="170" y1="106" x2="170" y2="126" stroke="#0B2E5C" stroke-width="5.5" stroke-linecap="round"/><line x1="142" y1="190" x2="142" y2="210" stroke="#0B2E5C" stroke-width="5.5" stroke-linecap="round"/><line x1="170" y1="190" x2="170" y2="210" stroke="#0B2E5C" stroke-width="5.5" stroke-linecap="round"/><line x1="104" y1="144" x2="124" y2="144" stroke="#0B2E5C" stroke-width="5.5" stroke-linecap="round"/><line x1="104" y1="172" x2="124" y2="172" stroke="#0B2E5C" stroke-width="5.5" stroke-linecap="round"/><line x1="188" y1="144" x2="208" y2="144" stroke="#0B2E5C" stroke-width="5.5" stroke-linecap="round"/><line x1="188" y1="172" x2="208" y2="172" stroke="#0B2E5C" stroke-width="5.5" stroke-linecap="round"/></g></svg>
